HIERARCHY
ROOT joint_Root
{
	OFFSET 0.0 0.0 0.0
	CHANNELS 6 Xposition Yposition Zposition Zrotation Xrotation Yrotation 
	JOINT Hips
	{
		OFFSET -0.726466 93.3139 -2.00062
		CHANNELS 6 Xposition Yposition Zposition Zrotation Xrotation Yrotation 
		JOINT Spine
		{
			OFFSET 15.7357 0.0 0.0
			CHANNELS 6 Xposition Yposition Zposition Zrotation Xrotation Yrotation 
			JOINT Chest
			{
				OFFSET 8.98455 -0.406207 0.0
				CHANNELS 6 Xposition Yposition Zposition Zrotation Xrotation Yrotation 
				JOINT Neck
				{
					OFFSET 16.3773 0.0 0.0
					CHANNELS 6 Xposition Yposition Zposition Zrotation Xrotation Yrotation 
					JOINT Head
					{
						OFFSET 6.45672 0.0 0.0
						CHANNELS 6 Xposition Yposition Zposition Zrotation Xrotation Yrotation 
						End Site
						{
							OFFSET 0.0 0.0 0.0
						}
					}
				}
				JOINT Shoulder_L
				{
					OFFSET 12.9942 -0.242716 4.98039
					CHANNELS 6 Xposition Yposition Zposition Zrotation Xrotation Yrotation 
					JOINT UpperArm_L
					{
						OFFSET 5.34809 0.0 0.0
						CHANNELS 6 Xposition Yposition Zposition Zrotation Xrotation Yrotation 
						JOINT LowerArm_L
						{
							OFFSET 24.3286 1.87007e-05 0.0
							CHANNELS 6 Xposition Yposition Zposition Zrotation Xrotation Yrotation 
							JOINT Hand_L
							{
								OFFSET 22.2916 0.0 0.0
								CHANNELS 6 Xposition Yposition Zposition Zrotation Xrotation Yrotation 
								End Site
								{
									OFFSET 0.0 0.0 0.0
								}
							}
						}
					}
				}
				JOINT Shoulder_R
				{
					OFFSET 12.9945 -0.242716 -4.98039
					CHANNELS 6 Xposition Yposition Zposition Zrotation Xrotation Yrotation 
					JOINT UpperArm_R
					{
						OFFSET -5.34813 0.0 0.0
						CHANNELS 6 Xposition Yposition Zposition Zrotation Xrotation Yrotation 
						JOINT LowerArm_R
						{
							OFFSET -24.3289 0.000322201 0.0
							CHANNELS 6 Xposition Yposition Zposition Zrotation Xrotation Yrotation 
							JOINT Hand_R
							{
								OFFSET -22.2915 -0.000108084 0.0
								CHANNELS 6 Xposition Yposition Zposition Zrotation Xrotation Yrotation 
								End Site
								{
									OFFSET 0.0 0.0 0.0
								}
							}
						}
					}
				}
			}
		}
		JOINT UpperLeg_L
		{
			OFFSET -2.19248 -6.46944 0.0
			CHANNELS 6 Xposition Yposition Zposition Zrotation Xrotation Yrotation 
			JOINT LowerLeg_L
			{
				OFFSET 39.0811 0.0 -1.23785e-05
				CHANNELS 6 Xposition Yposition Zposition Zrotation Xrotation Yrotation 
				JOINT Foot_L
				{
					OFFSET 40.9854 0.0 -1.26872e-05
					CHANNELS 6 Xposition Yposition Zposition Zrotation Xrotation Yrotation 
					JOINT Toes_L
					{
						OFFSET 11.7543 0.0 0.0
						CHANNELS 6 Xposition Yposition Zposition Zrotation Xrotation Yrotation 
						End Site
						{
							OFFSET 0.0 0.0 0.0
						}
					}
				}
			}
		}
		JOINT UpperLeg_R
		{
			OFFSET -2.19251 6.46944 0.0
			CHANNELS 6 Xposition Yposition Zposition Zrotation Xrotation Yrotation 
			JOINT LowerLeg_R
			{
				OFFSET -39.0811 -0.00228153 -0.0401928
				CHANNELS 6 Xposition Yposition Zposition Zrotation Xrotation Yrotation 
				JOINT Foot_R
				{
					OFFSET -40.9854 0.0 0.0
					CHANNELS 6 Xposition Yposition Zposition Zrotation Xrotation Yrotation 
					JOINT Toes_R
					{
						OFFSET -11.7543 0.0 0.0
						CHANNELS 6 Xposition Yposition Zposition Zrotation Xrotation Yrotation 
						End Site
						{
							OFFSET 0.0 0.0 0.0
						}
					}
				}
			}
		}
	}
}
MOTION
Frames:	6
Frame Time:	0.0333333
0.000000 0.000000 0.000000 0.000000 0.000000 -0.000000 0.452833 91.793100 -1.799220 87.556200 -3.640220 3.909630 15.735700 0.000005 -0.000001 83.446300 83.505300 -82.792900 8.984550 -0.406207 -0.000000 5.148820 -1.494340 1.372530 16.377300 -0.000001 -0.000001 4.837330 -0.126499 0.686016 6.456720 -0.000001 -0.000000 1.162160 0.952452 -2.366960 12.994200 -0.242716 4.980390 -90.119400 0.373678 -72.281400 5.348090 -0.000007 -0.000001 -67.443800 34.265700 -15.814900 24.328600 0.000019 0.000005 0.985494 1.852280 -28.026500 22.291600 -0.000001 0.000005 6.797700 5.646730 -14.709400 12.994500 -0.242716 -4.980390 88.233700 5.609480 -72.490300 -5.348130 -0.000001 -0.000004 -60.093600 33.987900 -20.410500 -24.328900 0.000322 -0.000009 -0.866037 -1.726090 -26.620500 -22.291500 -0.000108 -0.000004 9.539090 5.641230 -14.228900 -2.192480 -6.469440 -0.000000 -171.047000 -18.554000 -4.917430 39.081100 -0.000007 -0.000012 -0.160394 0.323466 26.375300 40.985400 -0.000006 -0.000013 -4.555350 -1.741660 -65.879500 11.754300 -0.000000 0.000003 -0.000084 -0.000890 -16.611800 -2.192510 6.469440 -0.000001 175.249000 22.038500 175.864000 -39.081100 -0.002282 -0.040193 0.043718 -0.090116 24.149300 -40.985400 0.000008 0.000006 0.130359 3.981160 -63.701700 -11.754300 -0.000006 -0.000006 -0.005217 -0.063551 -19.159000
0.000000 0.000000 0.000000 0.000000 0.000000 -0.000000 0.463069 91.785000 -1.847130 87.524200 -3.764830 3.964300 15.735700 0.000005 -0.000001 83.547400 83.509400 -82.831200 8.984550 -0.406207 -0.000000 5.143930 -1.472170 1.496790 16.377300 -0.000001 -0.000001 4.923500 -0.114801 0.713086 6.456720 -0.000001 -0.000000 1.344470 0.969045 -2.452470 12.994200 -0.242716 4.980390 -90.210400 0.656645 -72.237100 5.348090 -0.000007 -0.000001 -67.764700 31.374600 -15.622500 24.328600 0.000019 0.000005 0.438775 0.769871 -29.717400 22.291600 -0.000001 0.000005 7.208480 5.648060 -14.831300 12.994500 -0.242716 -4.980390 88.309300 5.359730 -72.463200 -5.348130 -0.000001 -0.000004 -59.118900 35.750000 -20.652600 -24.328900 0.000322 -0.000009 -0.891884 -1.687400 -27.836700 -22.291500 -0.000108 -0.000004 9.719120 5.643010 -14.380600 -2.192480 -6.469440 -0.000000 -171.007000 -18.563500 -4.906430 39.081100 -0.000007 -0.000012 -0.161672 0.324834 26.460000 40.985400 -0.000006 -0.000013 -4.572570 -1.850680 -65.912700 11.754300 -0.000000 0.000003 -0.000069 -0.000751 -16.606600 -2.192510 6.469440 -0.000001 175.274000 21.985100 175.848000 -39.081100 -0.002282 -0.040193 0.044558 -0.091754 24.204700 -40.985400 0.000008 0.000006 0.195227 4.045720 -63.697900 -11.754300 -0.000006 -0.000006 -0.005458 -0.065831 -19.251900
0.000000 0.000000 0.000000 0.000000 0.000000 -0.000000 0.468099 91.780700 -1.877140 87.516600 -3.822200 4.093800 15.735700 0.000005 -0.000001 83.844100 83.501600 -83.066400 8.984550 -0.406207 -0.000000 5.167140 -1.408390 1.617230 16.377300 -0.000001 -0.000001 4.989580 -0.168177 0.754357 6.456720 -0.000001 -0.000000 1.519600 0.874929 -2.537610 12.994200 -0.242716 4.980390 -90.249300 0.774946 -72.170000 5.348090 -0.000007 -0.000001 -66.882300 29.057400 -16.521300 24.328600 0.000019 0.000005 -0.175502 -0.280840 -32.006200 22.291600 -0.000001 0.000005 7.358660 5.649790 -14.994700 12.994500 -0.242716 -4.980390 88.426400 4.959760 -72.372000 -5.348130 -0.000001 -0.000004 -57.530900 38.450900 -20.858000 -24.328900 0.000322 -0.000009 -0.749780 -1.291710 -30.109000 -22.291500 -0.000108 -0.000004 10.535300 5.649240 -14.937700 -2.192480 -6.469440 -0.000000 -170.961000 -18.506600 -4.791890 39.081100 -0.000007 -0.000012 -0.162775 0.326598 26.491700 40.985400 -0.000006 -0.000013 -4.584210 -1.896270 -65.925500 11.754300 -0.000000 0.000003 -0.000071 -0.000767 -16.607200 -2.192510 6.469440 -0.000001 175.235000 21.969900 175.954000 -39.081100 -0.002282 -0.040193 0.044413 -0.091335 24.227400 -40.985400 0.000008 0.000006 0.254389 4.118090 -63.712200 -11.754300 -0.000006 -0.000006 -0.005258 -0.063937 -19.174700
0.000000 0.000000 0.000000 0.000000 0.000000 -0.000000 0.456211 91.769000 -1.920170 87.554900 -3.746460 4.205380 15.735700 0.000005 -0.000001 84.005200 83.514400 -83.174400 8.984550 -0.406207 -0.000000 5.145880 -1.370820 1.721350 16.377300 -0.000001 -0.000001 5.114020 -0.214461 0.685802 6.456720 -0.000001 -0.000000 1.669710 0.741894 -2.484510 12.994200 -0.242716 4.980390 -90.260600 0.805294 -72.067800 5.348090 -0.000007 -0.000001 -64.521500 27.108100 -18.660500 24.328600 0.000019 0.000005 0.135213 0.193873 -34.798500 22.291600 -0.000001 0.000005 7.637060 5.653710 -15.376400 12.994500 -0.242716 -4.980390 88.563700 4.511480 -72.319200 -5.348130 -0.000001 -0.000004 -55.349600 41.743500 -20.854200 -24.328900 0.000322 -0.000009 -0.545172 -0.815940 -33.717400 -22.291500 -0.000108 -0.000004 11.861700 5.655150 -15.511800 -2.192480 -6.469440 -0.000000 -170.979000 -18.479500 -4.771320 39.081100 -0.000007 -0.000012 -0.161379 0.322773 26.564200 40.985400 -0.000006 -0.000013 -4.571020 -1.894760 -65.913900 11.754300 -0.000000 0.000003 -0.000071 -0.000771 -16.607300 -2.192510 6.469440 -0.000001 175.172000 21.974100 176.029000 -39.081100 -0.002282 -0.040193 0.044736 -0.091844 24.275900 -40.985400 0.000008 0.000006 0.208728 4.034040 -63.780600 -11.754300 -0.000006 -0.000006 -0.005350 -0.064811 -19.210300
0.000000 0.000000 0.000000 0.000000 0.000000 -0.000000 0.419552 91.770200 -1.955080 87.560000 -3.501330 4.401590 15.735700 0.000005 -0.000001 83.941000 83.518400 -83.031100 8.984550 -0.406207 -0.000000 5.137620 -1.386290 1.879960 16.377300 -0.000001 -0.000001 5.263940 -0.276763 0.546683 6.456720 -0.000001 -0.000000 1.828390 0.572340 -2.455350 12.994200 -0.242716 4.980390 -90.232700 0.714126 -71.950000 5.348090 -0.000007 -0.000001 -61.353900 24.693000 -21.550100 24.328600 0.000019 0.000005 0.428502 0.547334 -38.069400 22.291600 -0.000001 0.000005 8.455770 5.657460 -15.773400 12.994500 -0.242716 -4.980390 88.690300 4.061370 -72.109500 -5.348130 -0.000001 -0.000004 -52.289500 45.619900 -20.884500 -24.328900 0.000322 -0.000009 -0.191015 -0.238984 -38.646800 -22.291500 -0.000108 -0.000004 13.386400 5.661770 -16.246300 -2.192480 -6.469440 -0.000000 -170.901000 -18.330000 -4.624900 39.081100 -0.000007 -0.000012 -0.163760 0.327799 26.545800 40.985400 -0.000006 -0.000013 -4.555960 -1.731070 -65.853200 11.754300 -0.000000 0.000003 -0.000076 -0.000816 -16.609000 -2.192510 6.469440 -0.000001 175.116000 22.054300 176.227000 -39.081100 -0.002282 -0.040193 0.044964 -0.092117 24.330400 -40.985400 0.000008 0.000006 0.276016 3.890680 -63.796100 -11.754300 -0.000006 -0.000006 -0.005325 -0.064576 -19.200800
0.000000 0.000000 0.000000 0.000000 0.000000 -0.000000 0.365552 91.754000 -1.979910 87.580600 -3.206490 4.531330 15.735700 0.000005 -0.000001 83.705700 83.552900 -82.702700 8.984550 -0.406207 -0.000000 5.064970 -1.434370 2.067230 16.377300 -0.000001 -0.000001 5.422430 -0.356624 0.363641 6.456720 -0.000001 -0.000000 1.958720 0.492361 -2.509740 12.994200 -0.242716 4.980390 -90.147300 0.450258 -71.883100 5.348090 -0.000007 -0.000001 -58.235200 21.100500 -24.611500 24.328600 0.000019 0.000005 0.055021 0.062059 -41.961100 22.291600 -0.000001 0.000005 9.295200 5.659900 -16.044700 12.994500 -0.242716 -4.980390 88.848500 3.513430 -71.840000 -5.348130 -0.000001 -0.000004 -49.214900 49.066000 -20.432600 -24.328900 0.000322 -0.000009 1.111530 1.116480 -44.848000 -22.291500 -0.000108 -0.000004 14.513900 5.669070 -17.228400 -2.192480 -6.469440 -0.000000 -170.877000 -18.217700 -4.620810 39.081100 -0.000007 -0.000012 -0.157754 0.314451 26.642300 40.985400 -0.000006 -0.000013 -4.530510 -1.565990 -65.838800 11.754300 -0.000000 0.000003 -0.000072 -0.000780 -16.607700 -2.192510 6.469440 -0.000001 175.065000 22.153800 176.366000 -39.081100 -0.002282 -0.040193 0.044845 -0.091581 24.394200 -40.985400 0.000008 0.000006 0.150158 3.701050 -63.892300 -11.754300 -0.000006 -0.000006 -0.005386 -0.065156 -19.224400
